<svg xmlns="http://www.w3.org/2000/svg" width="294" height="294" viewBox="0 0 294 294" fill="none">
  <path d="M294 147C294 228.186 228.186 294 147 294C65.8141 294 0 228.186 0 147C0 65.8141 65.8141 0 147 0C228.186 0 294 65.8141 294 147Z" fill="#FFEE9D"/>
  <path d="M192 89C192 113.853 171.853 134 147 134C122.147 134 102 113.853 102 89C102 64.1472 122.147 44 147 44C171.853 44 192 64.1472 192 89Z" fill="#FDFDFD"/>
  <path d="M107.5 141.5C118.7 150.3 138 155 146 155C154 155 172 153 186.5 141.5C201 130 230.5 227 214.5 231.5C198.5 236 91 235.5 75.5 231.5C60 227.5 93.5 130.5 107.5 141.5Z" fill="#FDFDFD"/>
</svg>